<svg width="512" height="512" viewBox="0 0 512 512" fill="none" xmlns="http://www.w3.org/2000/svg">
<rect width="512" height="512" fill="#EDEAE3"/>
<path d="M400 403.529V108.471C400 102.246 397.53 96.276 393.134 91.8744C388.738 87.4728 382.775 85 376.558 85H135.442C129.225 85 123.262 87.4728 118.866 91.8744C114.47 96.276 112 102.246 112 108.471V403.529C112 409.754 114.47 415.724 118.866 420.126C123.262 424.527 129.225 427 135.442 427H376.558C382.775 427 388.738 424.527 393.134 420.126C397.53 415.724 400 409.754 400 403.529ZM326.326 105.118V245.941H185.674V105.118H326.326ZM346.419 266.059H379.907V326.412H346.419V266.059ZM346.419 245.941V185.588H379.907V245.941H346.419ZM165.581 245.941H132.093V185.588H165.581V245.941ZM165.581 266.059L165.581 326.412H132.093V266.059H165.581ZM185.674 266.059H326.326V406.882H185.674L185.674 266.059ZM376.558 406.882H346.419V346.529H379.907V403.529C379.907 404.419 379.554 405.272 378.926 405.9C378.298 406.529 377.446 406.882 376.558 406.882ZM379.907 108.471V165.471H346.419V105.118H376.558C377.446 105.118 378.298 105.471 378.926 106.1C379.554 106.728 379.907 107.581 379.907 108.471ZM135.442 105.118H165.581V165.471H132.093V108.471C132.093 107.581 132.446 106.728 133.074 106.1C133.702 105.471 134.554 105.118 135.442 105.118ZM132.093 403.529V346.529H165.581V406.882H135.442C134.554 406.882 133.702 406.529 133.074 405.9C132.446 405.272 132.093 404.419 132.093 403.529Z" fill="#A19A9A"/>
</svg>
