<svg width="512" height="512" viewBox="0 0 512 512" fill="none" xmlns="http://www.w3.org/2000/svg">
<rect width="512" height="512" fill="#EDEAE3"/>
<path d="M428 432V80C428 72.5739 425.05 65.452 419.799 60.201C414.548 54.95 407.426 52 400 52H112C104.574 52 97.452 54.95 92.201 60.201C86.95 65.452 84 72.5739 84 80V432C84 439.426 86.95 446.548 92.201 451.799C97.452 457.05 104.574 460 112 460H400C407.426 460 414.548 457.05 419.799 451.799C425.05 446.548 428 439.426 428 432ZM340 76V244H172V76H340ZM364 268H404V340H364V268ZM364 244V172H404V244H364ZM148 244H108V172H148V244ZM148 268V340H108V268H148ZM172 268H340V436H172L172 268ZM400 436H364V364H404V432C404 433.061 403.579 434.078 402.828 434.828C402.078 435.579 401.061 436 400 436ZM404 80V148H364V76H400C401.061 76 402.078 76.4214 402.828 77.1716C403.579 77.9217 404 78.9391 404 80ZM112 76H148V148H108V80C108 78.9391 108.421 77.9217 109.172 77.1716C109.922 76.4214 110.939 76 112 76ZM108 432V364H148V436H112C110.939 436 109.922 435.579 109.172 434.828C108.421 434.078 108 433.061 108 432Z" fill="#A19A9A"/>
</svg>
